<?xml version="1.0" standalone="no"?>
<!DOCTYPE svg PUBLIC "-//W3C//DTD SVG 20010904//EN"
 "http://www.w3.org/TR/2001/REC-SVG-20010904/DTD/svg10.dtd">
<svg version="1.0" xmlns="http://www.w3.org/2000/svg"
 width="1280.000000pt" height="759.000000pt" viewBox="0 0 1280.000000 759.000000"
 preserveAspectRatio="xMidYMid meet">

<g transform="translate(0.000000,759.000000) scale(0.100000,-0.100000)"
fill="#000000" stroke="none">
<path d="M5445 7299 c-2117 -158 -4010 -299 -4205 -314 -592 -44 -1001 -74
-1085 -80 -44 -3 -96 -8 -115 -11 l-35 -5 7 -347 c3 -191 11 -603 17 -917 6
-313 13 -673 16 -800 3 -126 10 -457 15 -735 5 -278 14 -748 20 -1045 6 -297
15 -745 20 -995 6 -250 10 -507 10 -570 l0 -116 98 -31 c53 -17 320 -102 592
-188 272 -86 628 -199 790 -250 536 -170 2724 -863 2782 -881 l57 -17 333 156
c746 348 2072 968 2358 1102 168 78 683 319 1145 535 1218 569 1314 614 2835
1325 762 356 1444 675 1517 709 l132 61 5 40 c3 22 8 279 11 570 3 292 10 780
15 1085 5 305 12 797 16 1092 l7 537 -24 5 c-13 3 -798 86 -1744 186 -946 100
-1724 182 -1730 184 -5 1 -1742 -127 -3860 -285z m4166 136 c429 -42 934 -100
1779 -205 1158 -144 1148 -143 1219 -136 l64 6 -7 -463 c-3 -254 -9 -824 -12
-1267 -4 -443 -9 -944 -13 -1113 l-6 -309 -505 -235 c-278 -129 -791 -367
-1140 -530 -1587 -739 -1782 -831 -2965 -1398 -1453 -697 -2634 -1258 -3285
-1560 -74 -34 -163 -76 -197 -93 l-62 -30 -908 284 c-499 157 -1160 363 -1468
459 -308 96 -859 268 -1225 383 l-665 207 -7 315 c-3 173 -11 594 -17 935 -7
341 -18 964 -26 1385 -13 691 -23 1236 -44 2350 -3 206 -6 376 -6 376 0 1 41
-4 90 -10 100 -13 351 5 3585 259 245 19 735 58 1090 85 609 47 946 72 2050
155 256 20 609 46 785 60 176 13 446 34 600 45 154 12 411 32 570 44 378 31
413 31 726 1z"/>
<path d="M9015 7329 c-126 -10 -441 -34 -700 -54 -258 -19 -616 -46 -795 -60
-179 -14 -597 -45 -930 -70 -725 -54 -1454 -110 -1715 -130 -104 -8 -419 -33
-700 -55 -280 -22 -744 -58 -1030 -80 -286 -23 -689 -54 -895 -70 -206 -16
-594 -46 -862 -67 -269 -20 -488 -40 -488 -43 0 -8 704 -105 2285 -314 396
-53 829 -110 961 -128 l241 -32 339 38 c750 84 1221 133 2524 266 1202 122
1392 142 1778 184 350 39 2682 348 2682 356 0 5 -921 121 -1405 176 -330 38
-1007 105 -1040 103 -11 -1 -123 -10 -250 -20z"/>
<path d="M12255 6939 c-225 -25 -995 -110 -2130 -234 -225 -25 -468 -52 -540
-60 -71 -8 -461 -51 -865 -95 -404 -44 -834 -92 -955 -105 -121 -13 -404 -45
-630 -69 -1633 -180 -2006 -221 -2284 -251 -173 -19 -316 -35 -318 -35 -3 0
-3 -820 0 -1822 3 -1578 7 -1920 26 -2543 12 -396 25 -882 29 -1081 l7 -360
340 159 c394 184 1256 591 1772 838 197 94 403 193 458 219 55 26 431 206 835
400 922 442 1409 673 1955 928 694 323 1595 742 2101 978 l471 219 6 710 c4
390 10 1053 14 1473 l6 762 -24 -1 c-13 -1 -136 -14 -274 -30z m-20 -1012 c42
-42 55 -87 62 -217 7 -139 -7 -209 -51 -248 l-33 -29 28 -15 c57 -33 62 -60
63 -317 l1 -234 -75 -23 c-41 -13 -78 -24 -81 -24 -4 0 -10 102 -13 228 -8
266 -9 272 -39 272 l-22 0 3 -262 2 -263 -98 -31 -99 -31 -7 590 c-4 324 -5
592 -1 595 10 10 206 40 269 41 53 1 61 -2 91 -32z m-435 -136 l0 -119 -50
-11 c-28 -6 -60 -11 -71 -11 -20 0 -21 -4 -15 -92 3 -51 5 -104 6 -117 0 -25
3 -25 98 -5 l32 7 0 -116 0 -115 -62 -14 -63 -13 -3 -136 -3 -137 78 23 78 22
3 -115 c1 -63 -1 -119 -5 -123 -4 -4 -87 -32 -183 -62 -119 -37 -177 -51 -181
-43 -4 6 -8 288 -10 626 l-4 614 160 27 c88 15 168 27 178 28 15 1 17 -11 17
-118z m-446 -233 c3 -156 7 -442 9 -635 l2 -353 -99 -31 c-54 -17 -102 -27
-106 -22 -4 4 -33 121 -66 258 l-59 250 -3 -281 -2 -281 -102 -31 c-56 -17
-104 -29 -106 -27 -2 2 -6 234 -8 517 -3 282 -6 584 -7 670 -4 180 -18 159
121 179 46 6 85 9 88 6 3 -3 34 -119 70 -258 35 -140 66 -258 69 -264 3 -5 4
117 2 272 l-2 281 90 15 c49 8 93 15 96 16 4 0 9 -126 13 -281z m-651 -135 c4
-170 7 -477 7 -684 l0 -376 -132 -41 c-72 -23 -134 -39 -137 -36 -3 3 -8 320
-10 704 l-3 699 33 6 c146 26 187 33 210 34 l26 1 6 -307z m-489 195 c7 -40
22 -156 81 -623 25 -198 57 -443 71 -544 13 -101 23 -186 21 -188 -5 -4 -286
-93 -297 -93 -4 0 -11 58 -15 129 l-7 128 -57 -16 c-41 -13 -57 -22 -58 -37
-1 -10 -5 -72 -8 -136 l-7 -118 -166 -53 c-92 -30 -168 -53 -170 -52 -1 1 23
247 53 546 88 867 103 1010 109 1017 7 6 375 69 418 71 23 1 28 -4 32 -31z
m-554 -207 l0 -150 -52 -10 c-29 -6 -73 -15 -98 -19 l-45 -8 0 -627 0 -627
-45 -14 c-184 -59 -304 -96 -311 -96 -5 0 -9 284 -9 645 0 355 -3 645 -8 645
-4 0 -54 -9 -112 -20 -58 -11 -106 -20 -107 -20 -2 0 -3 74 -3 165 0 91 2 165
5 165 6 0 544 87 645 105 41 7 90 13 108 14 l32 1 0 -149z m-880 -233 c0 -134
3 -508 6 -833 l7 -590 -182 -56 c-100 -31 -183 -54 -185 -50 -2 3 -52 166
-112 361 l-109 355 -3 -397 -2 -397 -176 -56 c-97 -31 -182 -59 -190 -62 -12
-4 -14 124 -14 905 l0 911 33 6 c258 43 341 55 348 48 4 -4 59 -165 123 -358
l115 -350 1 378 c0 207 3 377 8 377 4 1 68 11 142 24 74 13 147 24 163 25 l27
1 0 -242z m-1412 -2 c142 -38 236 -147 263 -302 16 -92 17 -987 1 -1100 -20
-145 -81 -267 -187 -375 -138 -142 -352 -244 -569 -271 -126 -16 -232 3 -310
55 -97 65 -133 142 -147 317 -12 153 -11 773 1 980 15 263 48 349 186 487 69
69 97 89 185 132 155 75 282 103 434 96 50 -3 114 -11 143 -19z m-1514 -241
c142 -30 255 -104 302 -198 40 -77 54 -174 61 -408 l6 -217 -34 -7 c-19 -4
-159 -36 -312 -71 -153 -35 -282 -64 -287 -64 -5 0 -10 126 -12 279 -3 263 -4
280 -23 301 -17 19 -27 21 -67 17 -67 -8 -107 -32 -126 -75 -14 -31 -17 -93
-22 -402 -9 -606 -7 -1001 7 -1032 34 -77 190 -21 214 77 5 22 13 139 16 260
l6 220 306 78 c168 42 309 77 314 77 11 0 9 -253 -3 -350 -22 -180 -57 -267
-150 -384 -173 -215 -481 -377 -827 -436 -184 -32 -312 -21 -420 34 -94 47
-139 119 -170 271 -16 82 -18 142 -16 655 3 589 10 723 44 828 104 318 535
558 1009 561 66 0 144 -6 184 -14z"/>
<path d="M12070 5630 c0 -71 4 -130 8 -130 5 0 17 6 28 14 17 13 19 27 19 114
0 100 -10 132 -41 132 -11 0 -14 -26 -14 -130z"/>
<path d="M9982 5030 c-12 -140 -25 -281 -28 -314 l-6 -59 27 7 c15 4 39 9 54
12 l27 6 -9 86 c-4 48 -16 184 -25 302 l-17 215 -23 -255z"/>
<path d="M7018 4831 l-33 -29 -3 -614 c-2 -337 0 -628 3 -645 8 -47 37 -59 83
-36 69 34 67 8 67 699 0 512 -2 624 -14 637 -21 26 -67 21 -103 -12z"/>
<path d="M234 6461 c4 -113 11 -460 16 -771 6 -311 15 -799 20 -1085 5 -286
14 -790 20 -1120 28 -1546 38 -1957 46 -1964 5 -4 569 -182 1254 -396 685
-213 1589 -495 2009 -626 420 -132 765 -239 767 -239 2 0 3 1317 2 2927 l-3
2927 -210 28 c-503 65 -1783 236 -2395 319 -582 79 -1086 147 -1428 192 l-104
14 6 -206z m2116 -300 l1835 -307 3 -2718 c2 -2173 0 -2717 -10 -2713 -12 4
-659 209 -2773 877 l-969 306 -7 34 c-4 19 -10 253 -13 520 -4 267 -11 737
-16 1045 -5 308 -14 859 -20 1225 -6 366 -15 906 -20 1200 -6 294 -10 609 -10
701 l0 165 83 -14 c45 -7 908 -152 1917 -321z"/>
<path d="M465 6188 c3 -95 10 -474 15 -843 24 -1597 59 -3648 63 -3651 7 -7
1401 -444 1404 -440 4 4 -7 1478 -22 2871 -3 270 -8 829 -11 1243 -4 413 -9
752 -11 752 -2 0 -326 54 -720 120 -395 66 -719 120 -720 120 -1 0 0 -78 2
-172z"/>
<path d="M2026 5718 c6 -511 23 -2494 29 -3563 3 -484 8 -894 11 -912 4 -27
11 -34 51 -47 26 -9 53 -16 60 -16 11 0 13 425 13 2444 l0 2443 -62 7 c-35 4
-73 10 -85 13 l-22 5 5 -374z"/>
<path d="M2302 3593 l3 -2457 85 -27 c130 -41 1643 -519 1663 -525 16 -5 17
123 17 2585 0 1425 -3 2591 -7 2591 -4 0 -397 65 -874 145 -477 80 -872 145
-878 145 -8 0 -10 -689 -9 -2457z m890 1707 c190 -49 282 -124 323 -262 18
-63 22 -229 7 -269 -16 -40 -57 -66 -114 -74 l-52 -7 47 -25 c71 -36 123 -93
141 -154 19 -63 22 -332 5 -393 -14 -51 -57 -93 -104 -102 -21 -4 -77 -1 -124
6 -76 11 -590 125 -597 132 -1 2 -6 283 -10 624 l-7 621 204 -38 c112 -22 239
-48 281 -59z m-64 -1307 c136 -31 251 -60 256 -64 8 -7 227 -1300 221 -1307
-3 -3 -148 35 -322 84 l-51 14 -7 68 c-3 37 -8 88 -11 113 l-5 46 -61 17 c-33
9 -62 15 -64 13 -2 -2 -7 -45 -10 -95 -4 -50 -10 -96 -14 -102 -6 -9 -55 0
-188 36 -178 48 -181 49 -176 74 9 47 164 1135 164 1147 0 7 5 13 11 13 5 0
121 -25 257 -57z m-198 -1253 c425 -114 522 -164 586 -305 47 -101 53 -309 12
-375 -18 -28 -61 -43 -114 -38 -35 2 -42 1 -29 -7 92 -53 154 -128 166 -202 4
-26 8 -149 8 -272 1 -191 -1 -222 -14 -218 -8 4 -84 27 -169 54 l-154 47 -4
256 c-2 188 -7 261 -16 278 -11 20 -66 52 -87 52 -3 0 -5 -124 -5 -275 0 -151
-1 -275 -3 -275 -2 0 -23 6 -48 14 -24 8 -104 33 -176 56 l-133 41 0 609 c0
483 3 608 13 605 6 -2 82 -23 167 -45z"/>
<path d="M3070 4972 l0 -140 35 -6 c72 -14 85 6 85 130 0 98 -21 132 -92 149
l-28 7 0 -140z"/>
<path d="M3080 4455 l0 -175 43 0 c24 0 48 5 55 12 15 15 17 261 1 290 -10 18
-65 48 -89 48 -6 0 -10 -61 -10 -175z"/>
<path d="M3137 3660 c-7 -28 -42 -288 -52 -391 l-7 -66 62 -16 62 -15 -6 31
c-3 18 -14 120 -25 227 -12 107 -22 209 -24 225 -3 29 -3 29 -10 5z"/>
<path d="M3110 2341 l0 -139 35 -4 c60 -7 65 1 65 111 0 110 -13 140 -70 159
l-30 11 0 -138z"/>
</g>
</svg>
